<?xml version="1.0" standalone="no"?><!DOCTYPE svg PUBLIC "-//W3C//DTD SVG 1.1//EN" "http://www.w3.org/Graphics/SVG/1.1/DTD/svg11.dtd"><svg t="1610640188935" class="icon" viewBox="0 0 1024 1024" version="1.1" xmlns="http://www.w3.org/2000/svg" p-id="2240" xmlns:xlink="http://www.w3.org/1999/xlink" width="32" height="32"><defs><style type="text/css"></style></defs><path d="M512 65.290005c-246.708891 0-446.708971 200.00008-446.708971 446.708972S265.291109 958.707948 512 958.707948c246.712985 0 446.708971-200.00008 446.708971-446.708971S758.712985 65.290005 512 65.290005zM341.6758 792.81364c-24.772196 0-37.671994-7.758708-49.046043-14.613835-7.221472-4.342912-14.570857-7.326872-23.883967-9.098216-1.00898 6.04467-5.686513 10.937097-12.012591 10.937097-7.042393 0-12.775978-5.733585-12.775978-12.775978V320.552713c0-7.042393 5.733585-12.775978 12.775978-12.775978h157.388586v461.408765c-9.013281 1.815345-16.234753 4.755304-23.338544 9.013281-11.373025 6.856152-24.304546 14.614859-49.107441 14.614859z m169.977299 0c-24.772196 0-37.671994-7.758708-49.046043-14.613835-6.987135-4.202719-14.115486-7.120165-22.933315-8.954953V307.777759h144.644331v460.524628c-9.753131 1.714038-16.121166 5.440919-23.556508 9.897418-11.404748 6.855128-24.305569 14.613836-49.108465 14.613835z m268.38047-25.550932c0 7.042393-5.733585 12.775978-12.775978 12.775978-6.64535 0-11.758812-5.265934-12.355399-11.762905-9.839089 1.709945-16.234753 5.453199-23.696701 9.924024-11.435447 6.855128-24.366967 14.613836-49.201586 14.613835-24.834618 0-37.766139-7.758708-49.201585-14.613835-7.248078-4.347005-13.561877-7.957229-22.933315-9.729596v-460.69245H767.258615c7.042393 0 12.775978 5.733585 12.775978 12.775978v446.708971zM767.258615 269.51327H256.733199c-7.042393 0-12.775978-5.733585-12.775978-12.775978s5.733585-12.775978 12.775978-12.775978H767.258615c7.042393 0 12.775978 5.733585 12.775978 12.775978-0.001023 7.042393-5.733585 12.775978-12.775978 12.775978z" fill="#525561" p-id="2241" data-spm-anchor-id="a313x.7781069.0.i6" class="selected"></path></svg>